<svg width="40" height="44" viewBox="0 0 40 44" fill="none" xmlns="http://www.w3.org/2000/svg">
<path d="M34 22V9.498C34.0001 9.34013 33.9691 9.18379 33.9087 9.03793C33.8483 8.89207 33.7597 8.75956 33.648 8.648L27.352 2.352C27.1272 2.12689 26.8222 2.00028 26.504 2H3.2C2.88174 2 2.57652 2.12643 2.35147 2.35147C2.12643 2.57652 2 2.88174 2 3.2V40.8C2 41.1183 2.12643 41.4235 2.35147 41.6485C2.57652 41.8736 2.88174 42 3.2 42H16M10 18H26M10 10H18M10 26H16M35 39L38 42" stroke="black" stroke-width="3" stroke-linecap="round" stroke-linejoin="round"/>
<path d="M26 2V8.8C26 9.11826 26.1264 9.42348 26.3515 9.64853C26.5765 9.87357 26.8817 10 27.2 10H34M24 34C24 35.5913 24.6321 37.1174 25.7574 38.2426C26.8826 39.3679 28.4087 40 30 40C31.5913 40 33.1174 39.3679 34.2426 38.2426C35.3679 37.1174 36 35.5913 36 34C36 32.4087 35.3679 30.8826 34.2426 29.7574C33.1174 28.6321 31.5913 28 30 28C28.4087 28 26.8826 28.6321 25.7574 29.7574C24.6321 30.8826 24 32.4087 24 34Z" stroke="black" stroke-width="3" stroke-linecap="round" stroke-linejoin="round"/>
</svg>
