<svg width="50" height="46" viewBox="0 0 50 46" fill="none" xmlns="http://www.w3.org/2000/svg">
<path d="M14.8431 0.00199644C15.5755 0.00199644 16.2021 0.0738683 16.723 0.217612C17.2438 0.361356 17.7158 0.553014 18.1389 0.792587C18.5621 1.03216 18.9364 1.27972 19.2619 1.53526C19.5874 1.79081 19.9129 2.03837 20.2384 2.27794C20.5639 2.51751 20.922 2.70118 21.3126 2.82896C21.7032 2.95673 22.1508 3.03659 22.6553 3.06853H46.8731C47.3125 3.06853 47.7194 3.14839 48.0937 3.3081C48.4681 3.46782 48.7936 3.68343 49.0703 3.95495C49.347 4.22647 49.5748 4.55388 49.7538 4.9372C49.9329 5.32052 50.0142 5.7198 49.998 6.13506V16.9398L46.8731 13.8733V6.13506H22.6553C22.1508 6.13506 21.7114 6.20694 21.337 6.35068C20.9627 6.49442 20.6046 6.68608 20.2628 6.92565C19.9211 7.16523 19.5874 7.41279 19.2619 7.66833C18.9364 7.92387 18.5702 8.17143 18.1633 8.41101C17.7564 8.65058 17.2845 8.83425 16.7474 8.96202C16.2103 9.0898 15.5755 9.16965 14.8431 9.2016H3.12487V36.8004H18.7492V39.8669H0V3.06853C0 2.6373 0.0813769 2.23801 0.244131 1.87067C0.406884 1.50332 0.626602 1.18389 0.903284 0.912374C1.17997 0.640858 1.51361 0.417256 1.90422 0.241569C2.29483 0.0658825 2.70171 -0.0139751 3.12487 0.00199644H14.8431ZM14.8431 6.13506C15.2338 6.13506 15.5755 6.10312 15.8685 6.03923C16.1615 5.97535 16.43 5.87153 16.6741 5.72779C16.9183 5.58405 17.1543 5.42433 17.3821 5.24864C17.61 5.07296 17.8704 4.85734 18.1633 4.6018C17.8866 4.36222 17.6344 4.15459 17.4065 3.97891C17.1787 3.80322 16.9345 3.6435 16.6741 3.49976C16.4137 3.35602 16.1452 3.2522 15.8685 3.18832C15.5918 3.12443 15.25 3.0845 14.8431 3.06853H3.12487V6.13506H14.8431ZM39.7201 12.2681L49.998 22.3542V46H21.8741V12.2681H39.7201ZM40.6233 21.4677H44.6515L40.6233 17.5148V21.4677ZM46.8731 24.5343H37.4985V15.3347H24.999V42.9335H46.8731V24.5343ZM28.1239 36.8004H40.6233V39.8669H28.1239V36.8004ZM34.3736 33.7339H28.1239V30.6673H34.3736V33.7339ZM34.3736 27.6008H28.1239V24.5343H34.3736V27.6008ZM34.3736 21.4677H28.1239V18.4012H34.3736V21.4677Z" fill="black"/>
</svg>
