<svg width="36" height="44" viewBox="0 0 36 44" fill="none" xmlns="http://www.w3.org/2000/svg">
<path d="M16 2L34 2L34 34.502C34.0001 34.6599 33.9691 34.8162 33.9087 34.9621C33.8483 35.1079 33.7597 35.2404 33.648 35.352L27.352 41.648C27.1272 41.8731 26.8222 41.9997 26.504 42L3.2 42C2.88174 42 2.57652 41.8736 2.35147 41.6485C2.12643 41.4235 2 41.1183 2 40.8L2 3.2C2 2.88174 2.12642 2.57651 2.35147 2.35147C2.57651 2.12643 2.88174 2 3.2 2L16 2Z" stroke="black" stroke-width="3" stroke-linecap="round" stroke-linejoin="round"/>
<path d="M26 42L26 35.2C26 34.8817 26.1264 34.5765 26.3515 34.3515C26.5765 34.1264 26.8817 34 27.2 34L34 34" stroke="black" stroke-width="3" stroke-linecap="round" stroke-linejoin="round"/>
<path fill-rule="evenodd" clip-rule="evenodd" d="M15.2839 7.25819C14.6865 7.42412 13.7904 7.756 13.2926 7.98832C12.7948 8.23723 11.8987 8.78483 11.3179 9.23286C10.7205 9.6643 9.92402 10.4442 9.50917 10.942C9.11092 11.4399 8.56331 12.2364 8.31441 12.6844C8.0489 13.149 7.68384 13.9953 7.48471 14.5927C7.25239 15.2896 7.08645 16.2853 7.03667 17.4137C6.9537 18.8242 7.00348 19.4049 7.26899 20.4835C7.45152 21.2137 7.84978 22.2923 8.13187 22.8897C8.43056 23.487 8.97816 24.3665 9.35982 24.8643C9.74148 25.3456 10.4716 26.0923 10.9694 26.4906C11.4673 26.8888 12.4795 27.5194 13.2096 27.8844C13.9398 28.2329 15.0681 28.6478 15.6987 28.7805C16.3293 28.9133 17.3913 29.0294 18.0219 29.0294C18.6524 29.0294 19.7144 28.9133 20.345 28.7805C20.9756 28.6478 22.104 28.2495 22.8341 27.8844C23.5642 27.536 24.5765 26.9054 25.0743 26.5071C25.5721 26.0923 26.3022 25.3456 26.6839 24.8643C27.0656 24.3665 27.6132 23.487 27.9119 22.8897C28.194 22.2923 28.5922 21.2137 28.7747 20.4835C29.0402 19.4049 29.09 18.8242 29.0071 17.4137C28.9573 16.2853 28.7913 15.2896 28.559 14.5927C28.3599 13.9953 27.8953 12.9831 27.5136 12.3525C27.1319 11.722 26.3852 10.7429 25.821 10.1953C25.2734 9.63112 24.2944 8.88439 23.6638 8.50273C23.0332 8.12107 22.021 7.63985 21.4236 7.44072C20.6105 7.15862 19.8638 7.05906 18.3537 7.00928C16.8105 6.97609 16.1136 7.02587 15.2839 7.25819ZM15.7814 10.0461C15.2836 10.1788 14.5037 10.4941 14.0391 10.743C13.591 10.9919 12.7614 11.6391 12.2138 12.1867C11.6662 12.7343 11.019 13.564 10.7701 14.012C10.5212 14.4766 10.2059 15.2898 10.0731 15.8374C9.92379 16.385 9.80763 17.364 9.80763 17.9946C9.80763 18.6417 9.8906 19.488 9.99016 19.9029C10.0897 20.3177 10.405 21.1308 10.6871 21.7116C10.9858 22.3256 11.633 23.2051 12.164 23.7527C12.695 24.2837 13.5745 24.9308 14.1221 25.2129C14.6697 25.495 15.5491 25.8269 16.0635 25.9596C16.5946 26.0924 17.474 26.2086 18.0216 26.2086C18.5692 26.2086 19.4487 26.0924 19.9631 25.9596C20.4941 25.8269 21.3736 25.495 21.9212 25.2129C22.4688 24.9308 23.3483 24.2837 23.8627 23.7527C24.4103 23.2051 25.0575 22.3256 25.3562 21.7116C25.6548 21.1308 25.9701 20.2347 26.0863 19.7369C26.2024 19.2059 26.2356 18.2269 26.1859 17.4138C26.1361 16.6007 25.9701 15.6216 25.771 15.0906C25.5719 14.5928 25.0907 13.7133 24.6758 13.1491C24.261 12.5683 23.4479 11.7552 22.8671 11.3404C22.3029 10.9255 21.4234 10.4443 20.9256 10.2452C20.295 10.0129 19.4985 9.88013 18.3535 9.84694C17.1919 9.79716 16.412 9.86354 15.7814 10.0461Z" fill="black"/>
<path d="M17.2822 12.6798C17.441 12.4435 17.7409 12.1891 17.9526 12.0983C18.1466 12.0074 18.5171 11.9711 18.7641 12.0256C19.011 12.0801 19.3815 12.3163 19.5932 12.5526C19.9636 12.9705 19.9989 13.1885 19.9989 15.1873C19.9989 17.2587 19.9812 17.3859 19.5579 17.822C19.258 18.1309 18.9405 18.2763 18.4994 18.2763C18.0761 18.2763 17.7409 18.1309 17.441 17.822C17.0176 17.3859 17 17.2587 17 15.2418C17 13.5701 17.0529 13.0068 17.2822 12.6798Z" fill="black"/>
<path d="M17.0176 22.4737C17.0176 22.2011 17.2117 21.7469 17.441 21.4743C17.7409 21.1291 18.0408 21.0019 18.4994 21.0019C18.9405 21.0019 19.2403 21.1291 19.5579 21.4925C19.8225 21.7832 20.0165 22.2193 19.9989 22.4918C19.9989 22.7826 19.8048 23.2187 19.5755 23.4912C19.258 23.8728 18.9934 24 18.4994 24C18.0055 24 17.7409 23.8728 17.4234 23.4912C17.1764 23.2187 17 22.7826 17.0176 22.4737Z" fill="black"/>
<path d="M7.5 34H19.5" stroke="black" stroke-width="3" stroke-linecap="round"/>
</svg>
