<svg width="55" height="57" viewBox="0 0 55 57" fill="none" xmlns="http://www.w3.org/2000/svg">
<g id="Group 2614">
<path id="Union" fill-rule="evenodd" clip-rule="evenodd" d="M21.2506 17.5836L21.2722 17.576L21.3081 17.5733C21.4132 17.566 21.5632 17.5606 21.7283 17.5606C22.0213 17.5606 22.5029 17.6213 22.7494 17.6836C23.0174 17.7616 23.4004 17.9284 23.5745 18.0392C23.7607 18.1577 24.1141 18.4576 24.3186 18.6815C24.5057 18.8876 24.7677 19.2579 24.877 19.4601C24.9934 19.7178 25.1511 20.1297 25.2141 20.3819L25.2164 20.3911L25.2189 20.4001C25.2184 20.3982 25.2184 20.3983 25.2189 20.401C25.2207 20.4105 25.2284 20.4519 25.2377 20.5445C25.2489 20.6547 25.26 20.8103 25.2703 21.0257C25.2909 21.456 25.3071 22.0931 25.3195 23.0223C25.3442 24.8787 25.3529 27.8671 25.3529 32.6253C25.3529 37.7695 25.3471 40.7538 25.3224 42.5236C25.3101 43.4098 25.2931 43.9793 25.2708 44.3585C25.2485 44.7363 25.2227 44.883 25.2066 44.9458C25.1111 45.2831 24.9378 45.7167 24.837 45.8874C24.7322 46.0648 24.4517 46.4059 24.2464 46.5844L24.2322 46.5969L24.2185 46.6099C24.028 46.7918 23.6885 47.0304 23.5022 47.137C23.3358 47.2101 22.9071 47.3366 22.5277 47.4113C22.0667 47.4874 21.7633 47.4874 21.3024 47.4113C20.9077 47.3338 20.4756 47.2033 20.3395 47.1378C20.1657 47.0449 19.8214 46.8017 19.598 46.5976L19.5907 46.5909L19.5832 46.5844C19.3801 46.4077 19.1161 46.0851 19.0151 45.925C18.9356 45.7993 18.7628 45.3839 18.6515 45.0165C18.6002 44.8471 18.5535 44.6629 18.5203 44.5058C18.5037 44.4274 18.4917 44.3611 18.4841 44.3107C18.4788 44.2755 18.4772 44.2576 18.4768 44.2533L18.4768 44.2525C18.4774 44.1935 18.4795 43.9841 18.3918 43.7779C18.2619 43.4726 18.0182 43.3149 17.8154 43.2386C17.6513 43.1768 17.4726 43.1519 17.3358 43.1362C17.1841 43.1187 16.9924 43.1037 16.7663 43.0865L16.7663 43.0864L16.7562 43.0858C16.1189 43.0453 15.8098 42.9636 15.3293 42.7431C14.9415 42.5527 14.5628 42.2771 14.2964 42.0048C14.0729 41.7492 13.7574 41.265 13.617 40.9602C13.4771 40.6269 13.33 40.1152 13.2944 39.8648C13.2646 39.6175 13.2936 39.1961 13.3883 38.7419C13.464 38.394 13.6754 37.8641 13.8148 37.6272C13.9152 37.4616 14.008 37.3041 14.0748 37.1835C14.1067 37.1259 14.1413 37.0613 14.1681 37.0035C14.1779 36.9824 14.2053 36.9232 14.2259 36.8515L14.2266 36.8494C14.2336 36.8254 14.2667 36.7119 14.258 36.5673C14.2536 36.4935 14.2333 36.3063 14.0938 36.1216C14.0106 36.0115 13.9084 35.9322 13.7998 35.8795L13.798 35.8785L13.7474 35.8517L13.747 35.8516L13.7469 35.8515C13.6247 35.7867 13.3689 35.6512 13.0803 35.5025C12.7451 35.3298 12.2723 35.0074 12.0791 34.832C11.8979 34.6662 11.5722 34.2298 11.4126 33.9011L11.4126 33.901L11.4084 33.8926C11.2348 33.5453 11.0629 33.0267 11.0323 32.8052L11.0313 32.798L11.0302 32.7908C10.9885 32.5239 10.9934 32.0946 11.0614 31.7007C11.1404 31.2974 11.2743 30.845 11.3501 30.6933L11.3569 30.6797L11.3632 30.666C11.4416 30.4934 11.6586 30.1544 11.8371 29.9068C11.9727 29.7469 12.3242 29.446 12.6019 29.2793C12.7553 29.1872 12.9273 29.0949 13.0771 29.0237C13.152 28.9881 13.215 28.9609 13.2629 28.9423C13.2935 28.9305 13.3097 28.9255 13.3137 28.9242C13.4697 28.8926 13.637 28.8361 13.787 28.7475C13.8613 28.7037 13.9614 28.6345 14.0528 28.5305C14.1378 28.4337 14.2804 28.2306 14.2804 27.9379C14.2804 27.7607 14.225 27.6169 14.2077 27.572L14.2076 27.5718C14.1809 27.5025 14.1493 27.4373 14.1218 27.3843C14.0662 27.277 13.9975 27.1623 13.9349 27.0622L13.9189 27.0365L13.901 27.0121C13.8232 26.906 13.6665 26.6195 13.5786 26.4045C13.4999 26.2121 13.375 25.7705 13.3252 25.4717L13.3237 25.4629L13.3221 25.4541C13.2624 25.1387 13.2681 24.8242 13.3329 24.4793C13.3895 24.1997 13.5649 23.6682 13.7177 23.3318L13.7178 23.3318L13.7215 23.3235C13.8479 23.0367 14.1405 22.6377 14.3671 22.4282C14.6214 22.1944 15.0207 21.9116 15.2161 21.8178C15.3312 21.7625 15.4746 21.7039 15.608 21.6574C15.6741 21.6343 15.732 21.6162 15.7781 21.6036C15.8141 21.5938 15.8334 21.5899 15.8388 21.5888C15.8398 21.5886 15.8403 21.5885 15.8403 21.5885L15.8397 21.5885L15.8587 21.5862L15.8789 21.5826C15.9827 21.5643 16.0822 21.5456 16.1623 21.5296L16.1678 21.5285C16.2208 21.5179 16.3284 21.4964 16.4032 21.4715C16.4025 21.4717 16.4022 21.4718 16.4023 21.4718L16.4116 21.469C16.419 21.4668 16.4283 21.4641 16.4385 21.4613C16.4487 21.4585 16.4584 21.456 16.4667 21.454L16.4766 21.4516C16.4779 21.4513 16.4789 21.4511 16.4794 21.451C16.4798 21.4509 16.48 21.4509 16.48 21.4509L16.5011 21.4467C16.5276 21.444 16.5682 21.441 16.6245 21.4377C16.7396 21.4311 16.8853 21.4257 17.0428 21.4198C17.1725 21.4171 17.3111 21.4139 17.4304 21.4017C17.5443 21.3901 17.7426 21.3626 17.9384 21.2498C18.1719 21.1152 18.3017 20.9209 18.3741 20.7523C18.4293 20.624 18.4604 20.4856 18.4779 20.4079L18.48 20.3987L18.4851 20.376L18.489 20.3531C18.5106 20.2232 18.628 19.817 18.7564 19.4959L18.7602 19.4865L18.7637 19.477C18.8703 19.19 19.0813 18.8562 19.3684 18.569L19.3738 18.5636L19.3791 18.558C19.6421 18.2849 20.035 17.9909 20.1819 17.9175C20.2791 17.8689 20.4072 17.814 20.5294 17.7696C20.5897 17.7478 20.6424 17.7307 20.6843 17.7189C20.7146 17.7103 20.7312 17.7068 20.736 17.7058C20.737 17.7056 20.7375 17.7055 20.7375 17.7055L20.7587 17.7028L20.7832 17.6982C20.89 17.6782 21.0023 17.6538 21.0975 17.6291C21.1436 17.6171 21.198 17.6018 21.2506 17.5836ZM21.7283 15.9277C21.5321 15.9277 21.3441 15.9339 21.1957 15.9442C21.1233 15.9492 21.0485 15.9559 20.9823 15.9653C20.9512 15.9697 20.9045 15.9772 20.8539 15.9897C20.8295 15.9958 20.7866 16.0073 20.7366 16.0271L20.7349 16.0278C20.7261 16.0312 20.7089 16.038 20.686 16.0488C20.6394 16.0609 20.5726 16.0759 20.5001 16.0898C20.3197 16.1166 20.1227 16.1801 19.9724 16.2346C19.7973 16.2981 19.6107 16.3774 19.4515 16.457C19.0874 16.6391 18.5515 17.0646 18.2081 17.42C17.7777 17.852 17.4329 18.375 17.2365 18.8988C17.1292 19.1685 17.0169 19.5109 16.944 19.7894C16.8025 19.7947 16.6545 19.8004 16.5308 19.8075C16.4627 19.8114 16.3929 19.8162 16.3307 19.8226L16.3266 19.823C16.296 19.8262 16.2174 19.8342 16.1309 19.8557C16.0546 19.8724 15.9726 19.8953 15.9162 19.9129L15.9159 19.913C15.8998 19.9166 15.8751 19.9218 15.842 19.9284C15.78 19.9408 15.6989 19.9561 15.6105 19.9718C15.4329 19.9973 15.2309 20.0595 15.0703 20.1155C14.8861 20.1797 14.6856 20.261 14.5093 20.3457C14.1221 20.5316 13.5893 20.9248 13.2608 21.2272L13.2598 21.2281C12.8814 21.5775 12.4529 22.1553 12.2293 22.6602C12.0336 23.0918 11.8148 23.7434 11.7308 24.1632L11.7308 24.1632L11.7292 24.1715C11.6321 24.685 11.6145 25.2059 11.7159 25.7488C11.7835 26.149 11.937 26.7043 12.0672 27.0226C12.1341 27.1862 12.2294 27.3845 12.3314 27.5704C12.144 27.6613 11.9433 27.7701 11.7616 27.8791C11.3482 28.1273 10.8265 28.5595 10.5563 28.8934L10.543 28.9099L10.5306 28.9269C10.3411 29.1875 10.0372 29.6425 9.88254 29.9772C9.70507 30.34 9.54035 30.968 9.457 31.3967L9.45554 31.4043L9.45421 31.4118C9.36074 31.9461 9.34237 32.5591 9.41574 33.0359C9.47995 33.4894 9.72481 34.1754 9.94571 34.6186C10.1828 35.105 10.6243 35.7149 10.9784 36.0382L10.9797 36.0394C11.2978 36.3287 11.8912 36.7256 12.3242 36.9499C12.1132 37.3549 11.889 37.9493 11.7917 38.3995L11.7917 38.3995L11.7906 38.4047C11.6767 38.9492 11.6123 39.5732 11.6747 40.0724L11.6746 40.0724L11.676 40.0827C11.7347 40.5081 11.9336 41.1732 12.1178 41.6075L12.1219 41.6171L12.1262 41.6265C12.3353 42.0868 12.7535 42.727 13.0868 43.1021L13.0981 43.1148L13.11 43.1271C13.5172 43.5485 14.062 43.9417 14.6212 44.2146L14.6296 44.2187L14.638 44.2226C15.3167 44.5349 15.8229 44.6624 16.6475 44.7151C16.7442 44.7225 16.8278 44.729 16.9007 44.735C16.9079 44.7725 16.9153 44.8089 16.9226 44.8434C16.9652 45.0449 17.0234 45.2745 17.0887 45.4899C17.2105 45.8921 17.434 46.4795 17.6343 46.7968C17.8116 47.0777 18.1729 47.52 18.5039 47.8098C18.8133 48.0911 19.2734 48.4228 19.5893 48.5883L19.5961 48.5919L19.603 48.5953C19.9393 48.7635 20.5656 48.9316 21.0013 49.0163L21.0121 49.0184L21.0229 49.0202C21.6713 49.1284 22.1584 49.1284 22.8068 49.0202L22.8176 49.0184L22.8284 49.0163C23.2695 48.9305 23.8858 48.7634 24.2242 48.6022L24.2458 48.5919L24.2667 48.5804C24.5487 48.4253 25.018 48.1007 25.3325 47.8039C25.6605 47.5149 26.0476 47.0487 26.2429 46.7179C26.4445 46.3766 26.6658 45.789 26.7806 45.3809L26.7806 45.3809L26.7838 45.3692C26.8436 45.1436 26.8767 44.8638 26.9009 44.4546C26.9255 44.0369 26.9428 43.4368 26.9552 42.5463C26.9801 40.7626 26.9859 37.7653 26.9859 32.6253C26.9859 27.8688 26.9772 24.8697 26.9523 23.0006C26.9399 22.0671 26.9234 21.4071 26.9014 20.9476C26.8813 20.5282 26.8547 20.1978 26.7965 19.9785C26.6973 19.5853 26.4905 19.0614 26.3522 18.7594L26.3435 18.7404L26.3338 18.7219C26.1574 18.3836 25.8001 17.8837 25.5264 17.5826L25.5252 17.5813C25.2401 17.2689 24.778 16.8696 24.4514 16.6617C24.1148 16.4474 23.5727 16.2206 23.1883 16.1107L23.1786 16.1079L23.1689 16.1054C22.783 16.0053 22.1543 15.9277 21.7283 15.9277ZM12.9971 27.3218L12.9942 27.3227C12.9961 27.322 12.9971 27.3217 12.9971 27.3218ZM12.9913 27.3349L12.9892 27.3246C12.9826 27.3274 12.9719 27.3324 12.9573 27.3411C12.9399 27.3513 12.8857 27.3849 12.826 27.4528C12.7779 27.5075 12.6715 27.6483 12.651 27.8644L12.7056 27.8303L12.6475 27.931L12.5636 27.9491C12.5845 27.983 12.604 28.0152 12.6216 28.0453C12.6432 28.0821 12.66 28.1124 12.6721 28.1358C12.678 28.1473 12.682 28.1554 12.6843 28.1604C12.6853 28.1625 12.6858 28.1637 12.6859 28.1639C12.686 28.1642 12.6853 28.1625 12.6839 28.159C12.6821 28.1542 12.6752 28.1361 12.668 28.1079C12.6643 28.0932 12.6595 28.0721 12.6555 28.0458C12.6516 28.0201 12.6475 27.9831 12.6475 27.9379L12.6475 27.931L13.0513 27.635L13.1119 27.9379L13.1493 28.1245L13.1143 27.9379L13.0567 27.631L13.2425 27.4948L13.0533 27.613L12.9987 27.322L12.9913 27.3349ZM12.9913 27.3349L13.0476 27.6166L12.7056 27.8303L12.9913 27.3349ZM33.885 17.5836L33.8635 17.576L33.8275 17.5733C33.7224 17.566 33.5724 17.5606 33.4073 17.5606C33.1144 17.5606 32.6328 17.6213 32.3862 17.6836C32.1182 17.7616 31.7352 17.9284 31.5611 18.0392C31.375 18.1577 31.0215 18.4576 30.817 18.6815C30.6299 18.8876 30.3679 19.2579 30.2587 19.4601C30.1422 19.7178 29.9845 20.1297 29.9215 20.3819L29.9192 20.3911L29.9168 20.3998C29.9173 20.3982 29.9172 20.3985 29.9167 20.401C29.915 20.4105 29.9073 20.4519 29.8979 20.5445C29.8867 20.6547 29.8757 20.8103 29.8653 21.0257C29.8447 21.456 29.8285 22.0931 29.8161 23.0223C29.7914 24.8787 29.7827 27.8671 29.7827 32.6253C29.7827 37.7695 29.7885 40.7538 29.8132 42.5236C29.8256 43.4098 29.8425 43.9793 29.8649 44.3585C29.8871 44.7363 29.913 44.883 29.929 44.9458C30.0245 45.2831 30.1978 45.7167 30.2986 45.8874C30.4035 46.0648 30.684 46.4059 30.8892 46.5844L30.9035 46.5969L30.9172 46.6099C31.1076 46.7918 31.4471 47.0304 31.6334 47.137C31.7998 47.2101 32.2285 47.3366 32.6079 47.4113C33.0689 47.4874 33.3723 47.4874 33.8332 47.4113C34.2279 47.3338 34.6601 47.2033 34.7961 47.1378C34.9699 47.0449 35.3142 46.8017 35.5376 46.5976L35.5449 46.5909L35.5524 46.5844C35.7555 46.4077 36.0195 46.0851 36.1206 45.925C36.2 45.7993 36.3729 45.3839 36.4841 45.0165C36.5354 44.8471 36.5821 44.6629 36.6153 44.5058C36.6319 44.4274 36.6439 44.3611 36.6515 44.3107C36.6563 44.2785 36.6581 44.2607 36.6587 44.2547L36.6588 44.2533L36.6588 44.2525C36.6582 44.1935 36.6561 43.9841 36.7439 43.7779C36.8737 43.4726 37.1174 43.3149 37.3202 43.2386C37.4843 43.1768 37.663 43.1519 37.7999 43.1362C37.9515 43.1187 38.1432 43.1037 38.3693 43.0865L38.3693 43.0864L38.3794 43.0858C39.0167 43.0453 39.3258 42.9636 39.8064 42.7431C40.1941 42.5527 40.5728 42.2771 40.8393 42.0048C41.0627 41.7492 41.3782 41.265 41.5186 40.9602C41.6586 40.6269 41.8057 40.1152 41.8412 39.8648C41.871 39.6175 41.8421 39.1961 41.7473 38.7419C41.6716 38.394 41.4603 37.8641 41.3208 37.6272C41.2204 37.4616 41.1276 37.3041 41.0609 37.1835C41.029 37.1259 40.9943 37.0613 40.9675 37.0035C40.9577 36.9824 40.9303 36.9232 40.9097 36.8515L40.9091 36.8494C40.9021 36.8254 40.8689 36.7119 40.8776 36.5673C40.882 36.4935 40.9023 36.3063 41.0419 36.1216C41.125 36.0115 41.2272 35.9322 41.3358 35.8795L41.3377 35.8785L41.3882 35.8517L41.3886 35.8516C41.5107 35.7868 41.7666 35.6512 42.0553 35.5025C42.3905 35.3298 42.8633 35.0074 43.0565 34.832C43.2378 34.6662 43.5634 34.2298 43.723 33.9011L43.723 33.901L43.7272 33.8926C43.9008 33.5453 44.0728 33.0267 44.1033 32.8052L44.1043 32.798L44.1054 32.7908C44.1471 32.5239 44.1422 32.0946 44.0742 31.7007C43.9952 31.2974 43.8613 30.845 43.7855 30.6933L43.7787 30.6797L43.7725 30.666C43.6941 30.4934 43.477 30.1544 43.2985 29.9068C43.1629 29.7469 42.8114 29.446 42.5337 29.2793C42.3803 29.1872 42.2083 29.0949 42.0585 29.0237C41.9836 28.9881 41.9207 28.9609 41.8727 28.9423C41.8438 28.9312 41.8278 28.9261 41.8227 28.9245L41.8219 28.9242C41.6659 28.8926 41.4987 28.8361 41.3486 28.7475C41.2744 28.7037 41.1742 28.6345 41.0828 28.5305C40.9978 28.4337 40.8552 28.2306 40.8552 27.9379C40.8552 27.7607 40.9106 27.6169 40.9279 27.572L40.928 27.5718C40.9547 27.5025 40.9864 27.4373 41.0138 27.3843C41.0694 27.277 41.1381 27.1623 41.2007 27.0622L41.2167 27.0365L41.2346 27.0121C41.3124 26.906 41.4691 26.6195 41.557 26.4045C41.6357 26.2121 41.7607 25.7705 41.8104 25.4717L41.8119 25.4629L41.8136 25.4541C41.8732 25.1387 41.8675 24.8242 41.8027 24.4793C41.7462 24.1997 41.5708 23.6682 41.4179 23.3318L41.4178 23.3318L41.4142 23.3235C41.2877 23.0367 40.9952 22.6377 40.7685 22.4282C40.5142 22.1944 40.1149 21.9116 39.9195 21.8178C39.8044 21.7625 39.661 21.7039 39.5276 21.6574C39.4616 21.6343 39.4036 21.6162 39.3575 21.6036C39.3216 21.5938 39.3022 21.5899 39.2969 21.5888C39.2958 21.5886 39.2953 21.5885 39.2953 21.5885L39.277 21.5862L39.2567 21.5826C39.1529 21.5643 39.0534 21.5456 38.9733 21.5296L38.9678 21.5285C38.9148 21.5179 38.8072 21.4964 38.7324 21.4715L38.7241 21.469C38.7166 21.4668 38.7073 21.4641 38.6971 21.4613C38.6869 21.4585 38.6772 21.456 38.6689 21.454L38.659 21.4516C38.6567 21.4511 38.6556 21.4509 38.6556 21.4509L38.6345 21.4467C38.608 21.444 38.5674 21.441 38.5111 21.4377C38.396 21.4311 38.2503 21.4257 38.0928 21.4198C37.9631 21.4171 37.8245 21.4139 37.7052 21.4017C37.5914 21.3901 37.393 21.3626 37.1973 21.2498C36.9637 21.1152 36.834 20.9209 36.7615 20.7523C36.7063 20.624 36.6752 20.4856 36.6577 20.4079L36.6556 20.3987L36.6505 20.376L36.6467 20.3531C36.625 20.2232 36.5076 19.817 36.3792 19.4959L36.3754 19.4865L36.3719 19.477C36.2653 19.19 36.0544 18.8562 35.7673 18.569L35.7618 18.5636L35.7565 18.558C35.4935 18.2849 35.1006 17.9909 34.9537 17.9175C34.8565 17.8689 34.7284 17.814 34.6062 17.7696C34.546 17.7478 34.4932 17.7307 34.4513 17.7189C34.421 17.7103 34.4044 17.7068 34.3996 17.7058C34.3986 17.7056 34.3981 17.7055 34.3981 17.7055L34.377 17.7028L34.3525 17.6982C34.2456 17.6782 34.1334 17.6538 34.0381 17.6291C33.9921 17.6171 33.9376 17.6018 33.885 17.5836ZM33.4073 15.9277C33.6035 15.9277 33.7915 15.9339 33.9399 15.9442C34.0123 15.9492 34.0871 15.9559 34.1533 15.9653C34.1844 15.9697 34.2312 15.9772 34.2817 15.9897C34.3062 15.9958 34.349 16.0073 34.399 16.0271L34.4007 16.0278C34.4095 16.0312 34.4267 16.038 34.4496 16.0488C34.4963 16.0609 34.5631 16.0759 34.6356 16.0898C34.816 16.1166 35.0129 16.1801 35.1632 16.2346C35.3383 16.2981 35.5249 16.3774 35.6842 16.457C36.0483 16.6391 36.5841 17.0646 36.9276 17.42C37.3579 17.852 37.7028 18.375 37.8991 18.8988C38.0064 19.1685 38.1187 19.5109 38.1916 19.7894C38.3331 19.7947 38.4811 19.8004 38.6048 19.8075C38.6729 19.8114 38.7427 19.8162 38.8049 19.8226L38.809 19.823C38.8396 19.8262 38.9182 19.8342 39.0047 19.8557C39.0811 19.8724 39.163 19.8953 39.2194 19.9129L39.2197 19.913C39.2358 19.9166 39.2605 19.9218 39.2936 19.9284C39.3556 19.9408 39.4368 19.9561 39.5251 19.9718C39.7028 19.9973 39.9047 20.0595 40.0653 20.1155C40.2495 20.1797 40.45 20.261 40.6263 20.3457C41.0135 20.5316 41.5463 20.9248 41.8749 21.2272L41.8759 21.2281C42.2542 21.5775 42.6827 22.1553 42.9064 22.6602C43.102 23.0918 43.3209 23.7434 43.4048 24.1632L43.4048 24.1632L43.4064 24.1715C43.5035 24.685 43.5212 25.2059 43.4197 25.7488C43.3522 26.149 43.1986 26.7043 43.0685 27.0226C43.0016 27.1862 42.9062 27.3845 42.8043 27.5704C42.9916 27.6613 43.1923 27.7701 43.374 27.8791C43.7874 28.1273 44.3091 28.5595 44.5793 28.8934L44.5926 28.9099L44.605 28.9269C44.7945 29.1875 45.0984 29.6425 45.2531 29.9772C45.4306 30.34 45.5953 30.968 45.6786 31.3967L45.6801 31.4043L45.6814 31.4118C45.7749 31.9461 45.7933 32.5591 45.7199 33.0359C45.6557 33.4894 45.4108 34.1754 45.1899 34.6186C44.9529 35.105 44.5113 35.7149 44.1572 36.0382L44.1559 36.0394C43.8378 36.3287 43.2445 36.7256 42.8114 36.9499C43.0224 37.3549 43.2466 37.9493 43.3439 38.3995L43.345 38.4047C43.459 38.9492 43.5233 39.5732 43.461 40.0724L43.461 40.0724L43.4596 40.0827C43.4009 40.5081 43.202 41.1732 43.0178 41.6075L43.0137 41.6171L43.0095 41.6265C42.8003 42.0868 42.3821 42.727 42.0488 43.1021L42.0375 43.1148L42.0256 43.1271C41.6184 43.5485 41.0737 43.9417 40.5144 44.2146L40.506 44.2187L40.4976 44.2226C39.8189 44.5349 39.3127 44.6624 38.4881 44.7151C38.3914 44.7225 38.3078 44.729 38.235 44.735C38.2277 44.7725 38.2203 44.8089 38.213 44.8434C38.1704 45.0449 38.1122 45.2745 38.047 45.4899C37.9251 45.8921 37.7017 46.4795 37.5013 46.7968C37.324 47.0777 36.9627 47.52 36.6317 47.8098C36.3223 48.0911 35.8623 48.4228 35.5463 48.5883L35.5395 48.5919L35.5326 48.5953C35.1963 48.7635 34.57 48.9316 34.1343 49.0163L34.1236 49.0184L34.1127 49.0202C33.4643 49.1284 32.9773 49.1284 32.3288 49.0202L32.318 49.0184L32.3072 49.0163C31.8661 48.9305 31.2498 48.7634 30.9114 48.6022L30.8899 48.5919L30.8689 48.5804C30.5869 48.4253 30.1176 48.1007 29.8031 47.8039C29.4751 47.5149 29.0881 47.0487 28.8927 46.7179C28.6911 46.3766 28.4698 45.789 28.3551 45.3809L28.355 45.3809L28.3519 45.3692C28.292 45.1436 28.2589 44.8638 28.2347 44.4546C28.2101 44.0369 28.1928 43.4368 28.1804 42.5463C28.1555 40.7626 28.1497 37.7653 28.1497 32.6253C28.1497 27.8688 28.1585 24.8697 28.1833 23.0006C28.1957 22.0671 28.2123 21.4071 28.2343 20.9476C28.2544 20.5282 28.281 20.1978 28.3391 19.9785C28.4384 19.5853 28.6451 19.0614 28.7834 18.7594L28.7921 18.7404L28.8018 18.7219C28.9782 18.3836 29.3355 17.8837 29.6092 17.5826L29.6104 17.5813C29.8956 17.2689 30.3576 16.8696 30.6842 16.6617C31.0208 16.4474 31.5629 16.2206 31.9473 16.1107L31.957 16.1079L31.9667 16.1054C32.3527 16.0053 32.9813 15.9277 33.4073 15.9277ZM42.1443 27.3349L42.1464 27.3246C42.153 27.3274 42.1637 27.3324 42.1783 27.3411C42.1957 27.3513 42.25 27.3849 42.3096 27.4528C42.3577 27.5075 42.4642 27.6483 42.4847 27.8644L42.43 27.8303L42.1443 27.3349ZM42.4881 27.931L42.43 27.8303L42.088 27.6166L42.1443 27.3349L42.1369 27.322L42.0823 27.613L41.8931 27.4948L42.0789 27.631L42.0214 27.9379L41.9864 28.1245L42.0237 27.9379L42.0843 27.635L42.4881 27.931ZM42.4881 27.931L42.572 27.9491C42.5511 27.983 42.5316 28.0152 42.514 28.0453C42.4924 28.0821 42.4757 28.1124 42.4636 28.1358C42.4576 28.1473 42.4537 28.1554 42.4513 28.1604C42.4489 28.1657 42.4494 28.1649 42.4517 28.159C42.4535 28.1542 42.4604 28.1361 42.4676 28.1079C42.4713 28.0932 42.4761 28.0721 42.4801 28.0458C42.484 28.0201 42.4881 27.9831 42.4881 27.9379L42.4881 27.931Z" fill="#153359"/>
<path id="Subtract" fill-rule="evenodd" clip-rule="evenodd" d="M25.3838 29.4754L18.6269 36.2491L18.585 40.2361L19.0046 40.6557H22.9916L36.5474 27.1V26.3445L32.8962 22.6933H32.1407L25.3838 29.4754ZM31.7182 25.2631L30.8953 26.0913L33.1435 28.3308L34.7979 26.6829L32.5497 24.4433L31.7182 25.2631ZM24.8631 32.0662L19.9848 36.9088L20.0272 39.1399H22.2755L32.0321 29.4295C30.3268 27.7224 29.8093 27.2237 29.7839 27.2237C29.7669 27.2237 27.5525 29.4041 24.8631 32.0662Z" fill="#153359"/>
<g id="Vector">
<path d="M30.9914 26.0525L31.8265 25.2054L32.6703 24.3669L34.9518 26.6576L33.2729 28.3432L30.9914 26.0525Z" fill="#5BE294"/>
<path d="M19.9194 37.1172L24.87 32.164C27.5992 29.4411 29.8463 27.2108 29.8635 27.2108C29.8894 27.2108 30.4145 27.7209 32.1451 29.467L22.244 39.3993H19.9625L19.9194 37.1172Z" fill="#5BE294"/>
<path d="M30.9914 26.0525L31.8265 25.2054L32.6703 24.3669L34.9518 26.6576L33.2729 28.3432L30.9914 26.0525Z" stroke="#5BE294" stroke-width="0.109284"/>
<path d="M19.9194 37.1172L24.87 32.164C27.5992 29.4411 29.8463 27.2108 29.8635 27.2108C29.8894 27.2108 30.4145 27.7209 32.1451 29.467L22.244 39.3993H19.9625L19.9194 37.1172Z" stroke="#5BE294" stroke-width="0.109284"/>
</g>
<path id="Ellipse 200" d="M48.4781 21.6924C46.4675 17.7747 43.4123 14.4896 39.6505 12.2006C35.8886 9.91155 31.5669 8.70788 27.1634 8.72273C22.7599 8.73759 18.4464 9.97038 14.7001 12.2847C10.9538 14.5991 7.92081 17.9047 5.93671 21.8359L7.56298 22.6567C9.39565 19.0255 12.1971 15.9722 15.6575 13.8345C19.1179 11.6968 23.1022 10.5581 27.1695 10.5444C31.2369 10.5307 35.2288 11.6425 38.7035 13.7568C42.1782 15.8711 45.0003 18.9054 46.8574 22.5241L48.4781 21.6924Z" fill="#153359"/>
<path id="Ellipse 210" d="M5.65533 24.7842C5.18226 24.6131 4.65834 24.8575 4.50547 25.3368C3.44079 28.6745 3.12286 32.2096 3.57901 35.6907C4.07464 39.4732 5.46974 43.0818 7.64738 46.214C9.82502 49.3462 12.7217 51.9109 16.0948 53.6929C19.4678 55.4749 23.2189 56.4224 27.0335 56.4561C30.8482 56.4897 34.6154 55.6084 38.0193 53.8861C41.4232 52.1638 44.3647 49.6507 46.5972 46.5573C48.8298 43.464 50.2882 39.8806 50.8505 36.1074C51.3679 32.6348 51.1124 29.0947 50.1067 25.7387C49.9623 25.2568 49.4427 25.0033 48.9667 25.1659C48.4907 25.3286 48.2386 25.8459 48.3815 26.3282C49.2939 29.4083 49.5232 32.6544 49.0487 35.8389C48.5294 39.3241 47.1822 42.634 45.1201 45.4913C43.058 48.3485 40.341 50.6698 37.1969 52.2607C34.0528 53.8515 30.5731 54.6655 27.0496 54.6345C23.5261 54.6034 20.0613 53.7282 16.9457 52.0822C13.8301 50.4362 11.1545 48.0673 9.14309 45.1741C7.13165 42.281 5.84303 38.9478 5.38523 35.454C4.96692 32.2616 5.25339 29.0201 6.21996 25.9566C6.37132 25.4769 6.12839 24.9552 5.65533 24.7842Z" fill="#153359"/>
<circle id="Ellipse 207" cx="27.4088" cy="3.97403" r="2.15918" transform="rotate(-117.26 27.4088 3.97403)" stroke="#153359" stroke-width="1.58236"/>
<rect id="Rectangle 1345" x="4.50244" y="20.9964" width="1.50054" height="3.32431" transform="rotate(-60 4.50244 20.9964)" fill="#153359"/>
<rect id="Rectangle 1349" x="26.4507" y="5.90912" width="1.96974" height="3.65809" fill="#153359"/>
<rect id="Rectangle 1351" width="1.50054" height="3.32431" transform="matrix(-0.5 -0.866025 -0.866025 0.5 49.7773 20.9964)" fill="#153359"/>
<circle id="Ellipse 202" cx="2.95461" cy="19.2749" r="2.16344" stroke="#153359" stroke-width="1.58236"/>
<circle id="Ellipse 209" cx="2.95461" cy="2.95461" r="2.16344" transform="matrix(-1 0 0 1 54.2798 16.3203)" stroke="#153359" stroke-width="1.58236"/>
</g>
</svg>
