<svg width="60" height="21" viewBox="0 0 60 21" fill="none" xmlns="http://www.w3.org/2000/svg">
<path d="M9.30229 1.40353L1.03359 9.67222C0.759466 9.94635 0.605465 10.3181 0.605465 10.7058C0.605465 11.0935 0.759466 11.4653 1.03359 11.7394L9.30229 20.0081C9.50661 20.2132 9.76723 20.3529 10.0511 20.4097C10.3349 20.4665 10.6293 20.4377 10.8967 20.327C11.1642 20.2162 11.3928 20.0286 11.5535 19.7878C11.7142 19.5471 11.7998 19.264 11.7994 18.9745L11.7974 12.1673L59.9481 12.1694V9.24225L11.7974 9.24432L11.7994 2.43711C11.7998 2.14763 11.7142 1.86456 11.5535 1.62379C11.3928 1.38301 11.1642 1.19538 10.8967 1.08467C10.6293 0.97396 10.3349 0.945163 10.0511 1.00193C9.76723 1.05869 9.50661 1.19847 9.30229 1.40353Z" fill="#001A5C"/>
</svg>
